# xmcd
#
# Track frame offsets: 
#        150
#        9517
#        17390
#        23556
#
# Disc length: 403 seconds
#
# Revision: 4
# Processed by: cddbd v1.5.2PL0 Copyright (c) Steve Scherf et al.
# Submitted via: ExactAudioCopy v0.99pb3
#
DISCID=19019104
DTITLE=The Gossip - Gossip (EP)
DYEAR=2000
DGENRE=Lo-Fi
TTITLE0=Red Hott
TTITLE1=On the Prowl
TTITLE2=Jailbreak
TTITLE3=Dressed in Black
EXTD=
EXTT0=
EXTT1=
EXTT2=
EXTT3=
PLAYORDER=
